<?xml version="1.0" encoding="UTF-8"?>
<svg id="Layer_1" xmlns="http://www.w3.org/2000/svg" version="1.1" xmlns:xlink="http://www.w3.org/1999/xlink" viewBox="0 0 40 40">
  <!-- Generator: Adobe Illustrator 29.4.0, SVG Export Plug-In . SVG Version: 2.1.0 Build 152)  -->
  <defs>
    <style>
      .st0, .st1, .st2 {
        fill: none;
        stroke-miterlimit: 10;
      }

      .st0, .st2 {
        stroke: #000;
      }

      .st1 {
        stroke: #fff;
      }

      .st2 {
        stroke-width: .25px;
      }

      .st3 {
        fill: url(#linear-gradient);
      }
    </style>
    <linearGradient id="linear-gradient" x1="7.49" y1="27.37" x2="31.84" y2="13.31" gradientUnits="userSpaceOnUse">
      <stop offset="0" stop-color="#b90000"/>
      <stop offset=".18" stop-color="#fffc5c"/>
      <stop offset=".36" stop-color="#6aff5c"/>
      <stop offset=".54" stop-color="#45fffc"/>
      <stop offset=".7" stop-color="#1a00e7"/>
      <stop offset=".87" stop-color="#ff2efc"/>
    </linearGradient>
  </defs>
  <polyline class="st3" points="9.92 31.09 8.16 10.9 30.91 10.9 28.9 31.09"/>
  <path class="st0" d="M6.51,6.89h26.11l-2.44,26s0,1-1.17,1.06-19.39,0-19.39,0c0,0-.72.06-.83-1.06S6.51,6.89,6.51,6.89Z"/>
  <line class="st1" x1="28.57" y1="16.8" x2="28.29" y2="19.06"/>
  <line class="st1" x1="28.08" y1="20.74" x2="27.81" y2="22.94"/>
  <line class="st2" x1="9.92" y1="32.24" x2="28.9" y2="32.24"/>
  <path d="M14.56,17.51c0-.65.21-1.31.63-1.97.42-.67,1.03-1.22,1.83-1.66s1.73-.66,2.8-.66c.99,0,1.87.18,2.63.55.76.37,1.35.86,1.76,1.49.41.63.62,1.31.62,2.05,0,.58-.12,1.09-.35,1.53s-.52.81-.84,1.13c-.33.32-.91.85-1.75,1.6-.23.21-.42.4-.56.56-.14.16-.24.31-.31.44-.07.13-.12.27-.16.4-.04.13-.09.37-.17.7-.13.71-.54,1.07-1.22,1.07-.36,0-.66-.12-.9-.35-.24-.23-.36-.58-.36-1.04,0-.57.09-1.07.27-1.49.18-.42.41-.79.71-1.11.29-.32.69-.7,1.19-1.13.44-.38.75-.67.95-.87.2-.2.36-.41.49-.65s.2-.5.2-.78c0-.55-.21-1.01-.61-1.38s-.93-.56-1.57-.56c-.75,0-1.31.19-1.66.57-.36.38-.66.94-.9,1.68-.23.77-.67,1.16-1.32,1.16-.38,0-.71-.13-.97-.41-.26-.27-.39-.56-.39-.88ZM19.56,28.75c-.42,0-.78-.14-1.09-.4-.31-.27-.47-.65-.47-1.13,0-.43.15-.79.45-1.09.3-.29.67-.44,1.11-.44s.79.15,1.09.44c.29.29.44.66.44,1.09,0,.48-.15.85-.46,1.13-.31.27-.66.41-1.07.41Z"/>
</svg>