<?xml version="1.0" encoding="UTF-8"?>
<svg id="Layer_1" xmlns="http://www.w3.org/2000/svg" version="1.1" viewBox="0 0 40 40">
  <!-- Generator: Adobe Illustrator 29.4.0, SVG Export Plug-In . SVG Version: 2.1.0 Build 152)  -->
  <defs>
    <style>
      .st0 {
        fill: #6000ea;
      }

      .st1, .st2, .st3 {
        fill: none;
        stroke-miterlimit: 10;
      }

      .st1, .st3 {
        stroke: #000;
      }

      .st2 {
        stroke: #fff;
      }

      .st3 {
        stroke-width: .25px;
      }
    </style>
  </defs>
  <line class="st3" x1="18.1" y1="34.22" x2="21.97" y2="34.22"/>
  <line class="st3" x1="17.82" y1="36.34" x2="22.28" y2="36.34"/>
  <line class="st3" x1="17.16" y1="37.29" x2="22.95" y2="37.29"/>
  <polygon class="st1" points="12.21 38.33 27.85 38.33 27.85 37.29 22.95 37.29 22.95 36.34 22.28 36.34 21.97 34.22 21.97 31.19 18.1 31.19 18.1 34.22 17.82 36.34 17.16 36.34 17.16 37.29 12.21 37.29 12.21 38.33"/>
  <rect class="st0" x="13.27" y="5.03" width="13.45" height="24.29"/>
  <path class="st1" d="M12.15,2.42v27.28s0,1.49,1.49,1.49,12.7,0,12.7,0c0,0,1.49,0,1.49-1.49V1.67h-15.69v.75Z"/>
  <line class="st2" x1="25.23" y1="21.84" x2="25.23" y2="28.2"/>
  <line class="st2" x1="25.23" y1="20.19" x2="25.23" y2="21.1"/>
  <line class="st3" x1="13.27" y1="30.07" x2="26.81" y2="30.07"/>
</svg>